<svg width="8" height="8" viewBox="0 0 8 8" fill="none" xmlns="http://www.w3.org/2000/svg">
<g clip-path="url(#clip0_38_23891)">
<path d="M1.2834 2.87304C1.23474 2.65388 1.24222 2.42599 1.30512 2.21049C1.36802 1.99499 1.48431 1.79886 1.64322 1.64028C1.80213 1.48171 1.9985 1.36582 2.21413 1.30337C2.42977 1.24092 2.65768 1.23393 2.87673 1.28304C2.9973 1.09447 3.1634 0.939293 3.35971 0.831802C3.55603 0.724311 3.77625 0.667969 4.00006 0.667969C4.22388 0.667969 4.4441 0.724311 4.64041 0.831802C4.83673 0.939293 5.00283 1.09447 5.1234 1.28304C5.34279 1.23371 5.57109 1.24068 5.78706 1.30328C6.00304 1.36588 6.19968 1.48209 6.35868 1.64109C6.51768 1.8001 6.63389 1.99673 6.69649 2.21271C6.75909 2.42868 6.76606 2.65698 6.71673 2.87637C6.9053 2.99694 7.06048 3.16304 7.16797 3.35936C7.27546 3.55567 7.3318 3.77589 7.3318 3.99971C7.3318 4.22352 7.27546 4.44374 7.16797 4.64006C7.06048 4.83637 6.9053 5.00247 6.71673 5.12304C6.76584 5.3421 6.75885 5.57001 6.6964 5.78564C6.63395 6.00127 6.51807 6.19764 6.35949 6.35655C6.20092 6.51546 6.00479 6.63175 5.78928 6.69465C5.57378 6.75756 5.34589 6.76503 5.12673 6.71637C5.00632 6.90566 4.84009 7.06151 4.64344 7.16948C4.44679 7.27745 4.22607 7.33406 4.00173 7.33406C3.77739 7.33406 3.55667 7.27745 3.36002 7.16948C3.16337 7.06151 2.99714 6.90566 2.87673 6.71637C2.65768 6.76548 2.42977 6.75849 2.21413 6.69604C1.9985 6.63359 1.80213 6.51771 1.64322 6.35913C1.48431 6.20056 1.36802 6.00443 1.30512 5.78893C1.24222 5.57343 1.23474 5.34553 1.2834 5.12637C1.09338 5.00612 0.936869 4.83976 0.828414 4.64278C0.719959 4.44579 0.663086 4.22458 0.663086 3.99971C0.663086 3.77484 0.719959 3.55362 0.828414 3.35664C0.936869 3.15965 1.09338 2.99329 1.2834 2.87304Z" stroke="#2B7FFF" stroke-width="0.5" stroke-linecap="round" stroke-linejoin="round"/>
</g>
<defs>
<clipPath id="clip0_38_23891">
<rect width="8" height="8" fill="white"/>
</clipPath>
</defs>
</svg>
